# xmcd
#
# Track frame offsets: 
#        150
#        18082
#        39541
#        57334
#        80007
#        90212
#        110752
#        127849
#        148050
#        167924
#
# Disc length: 3019 seconds
#
# Revision: 0
# Processed by: cddbd v1.5.2PL0 Copyright (c) Steve Scherf et al.
# Submitted via: ExactAudioCopyFreeDBPlugin 1.0
#
DISCID=7c0bc90a
DTITLE=Martin Harley and Daniel Kimbo - Live At Southern Ground
DYEAR=2015
DGENRE=Blues
TTITLE0=Cardboard King
TTITLE1=Winter Coat
TTITLE2=Goodnight Irene
TTITLE3=Can't Help Moving
TTITLE4=Honey Bee
TTITLE5=Chocolate Jesus
TTITLE6=Automatic Life
TTITLE7=Money Don't Matter
TTITLE8=Nobody's Fault But Mine
TTITLE9=Love In The Afternoon
EXTD=
EXTT0=
EXTT1=
EXTT2=
EXTT3=
EXTT4=
EXTT5=
EXTT6=
EXTT7=
EXTT8=
EXTT9=
PLAYORDER=
